# xmcd CD database file
#
# Track frame offsets:
#	150
#	19663
#	30440
#	43314
#	55419
#	69246
#	78555
#	87345
#	97743
#	115739
#	134161
#	148209
#
# Disc length: 2232 seconds
#
# Revision: 1
# Processed by: cddbd v1.5.2PL0 Copyright (c) Steve Scherf et al.
# Submitted via: CDex 1.70beta2
#
DISCID=a308b60c
DTITLE=Various Artist - Open Country (disk 3)
DYEAR=2007
DGENRE=Country
TTITLE0=Kenny Rogers - Coward of the County
TTITLE1=The Nitty Gritty Dirt Band - Honky Tonk Blues
TTITLE2=Asleep at the Wheel - (Get Your Kicks on) Route 66
TTITLE3=George Jones and Melba Montgomery - We Must have been Out of Our Minds
TTITLE4=Willie Nelson - Funny How the Time Slips Away
TTITLE5=Linda Ronstadt - When Will I be Loved
TTITLE6=Faron Young - Alone with You
TTITLE7=Ferlin Husky - Wings of a Dove
TTITLE8=Bobby Goldsboro - Honey
TTITLE9=Juice Newton - The Sweetest Thing (I've Ever Known)
TTITLE10=Glen Campbell - Wichita Lineman
TTITLE11=Jessi Colter - Storms Never Last
EXTD=YEAR: 2007
EXTT0=
EXTT1=
EXTT2=
EXTT3=
EXTT4=
EXTT5=
EXTT6=
EXTT7=
EXTT8=
EXTT9=
EXTT10=
EXTT11=
PLAYORDER=
